<?xml version="1.0" encoding="iso-8859-1" standalone="no"?> 
<?xml-stylesheet href="main.css" type="text/css"?> 
<svg xmlns="http://www.w3.org/2000/svg" xmlns:xlink="http://www.w3.org/1999/xlink" width="195.06502pt" height="85.65352pt" viewBox="-14.42636 -51.46196 195.06502 85.65352 "> 
<g transform="translate(0, 34.19156 ) scale(1,-1) translate(0,51.46196 )"> 
    </p>
    <g stroke="#000" fill="#000">
 <g stroke-width="0.4">
 <path d=" M 5.53882 0.0 C 5.53882 3.05904 3.05904 5.53882 0.0 5.53882 C -3.05904 5.53882 -5.53882 3.05904 -5.53882 0.0 C -5.53882 -3.05904 -3.05904 -5.53882 0.0 -5.53882 C 3.05904 -5.53882 5.53882 -3.05904 5.53882 0.0 Z M 0.0 0.0  " fill="none"/>
 <g fill="#000">
 <text style="stroke:none" transform="scale(1,-1) translate(0.0,0)" text-anchor="middle"  font-size="12"> 
<g fill="#000">
 <g stroke="none"> </g> </g>
 </text> 
</g>
 <path d=" M 5.53882 28.45274 C 5.53882 31.51178 3.05904 33.99156 0.0 33.99156 C -3.05904 33.99156 -5.53882 31.51178 -5.53882 28.45274 C -5.53882 25.3937 -3.05904 22.91393 0.0 22.91393 C 3.05904 22.91393 5.53882 25.3937 5.53882 28.45274 Z M 0.0 28.45274  " fill="none"/>
 <g transform="translate(0.0,28.45274)">
 <g fill="#000">
 <text style="stroke:none" transform="scale(1,-1) translate(0.0,0)" text-anchor="middle"  font-size="12"> 
<g fill="#000">
 <g stroke="none"> </g> </g>
 </text> 
</g>
 </g>
 <path d=" M 33.99156 0.0 C 33.99156 3.05904 31.51178 5.53882 28.45274 5.53882 C 25.3937 5.53882 22.91393 3.05904 22.91393 0.0 C 22.91393 -3.05904 25.3937 -5.53882 28.45274 -5.53882 C 31.51178 -5.53882 33.99156 -3.05904 33.99156 0.0 Z M 28.45274 0.0  " fill="none"/>
 <g transform="translate(28.45274,0.0)">
 <g fill="#000">
 <text style="stroke:none" transform="scale(1,-1) translate(0.0,0)" text-anchor="middle"  font-size="12"> 
<g fill="#000">
 <g stroke="none"> </g> </g>
 </text> 
</g>
 </g>
 <path d=" M 33.99156 28.45274 C 33.99156 31.51178 31.51178 33.99156 28.45274 33.99156 C 25.3937 33.99156 22.91393 31.51178 22.91393 28.45274 C 22.91393 25.3937 25.3937 22.91393 28.45274 22.91393 C 31.51178 22.91393 33.99156 25.3937 33.99156 28.45274 Z M 28.45274 28.45274  " fill="none"/>
 <g transform="translate(28.45274,28.45274)">
 <g fill="#000">
 <text style="stroke:none" transform="scale(1,-1) translate(0.0,0)" text-anchor="middle"  font-size="12"> 
<g fill="#000">
 <g stroke="none"> </g> </g>
 </text> 
</g>
 </g>
 <path d=" M 19.76518 14.22636 C 19.76518 17.2854 17.2854 19.76518 14.22636 19.76518 C 11.16733 19.76518 8.68755 17.2854 8.68755 14.22636 C 8.68755 11.16733 11.16733 8.68755 14.22636 8.68755 C 17.2854 8.68755 19.76518 11.16733 19.76518 14.22636 Z M 14.22636 14.22636  " fill="none"/>
 <g transform="translate(14.22636,14.22636)">
 <g fill="#000">
 <text style="stroke:none" transform="scale(1,-1) translate(0.0,0)" text-anchor="middle"  font-size="12"> 
<g fill="#000">
 <g stroke="none"> </g> </g>
 </text> 
</g>
 </g>
 <path d=" M 119.3498 0.0 C 119.3498 3.05904 116.87001 5.53882 113.81097 5.53882 C 110.75194 5.53882 108.27216 3.05904 108.27216 0.0 C 108.27216 -3.05904 110.75194 -5.53882 113.81097 -5.53882 C 116.87001 -5.53882 119.3498 -3.05904 119.3498 0.0 Z M 113.81097 0.0  " fill="none"/>
 <g transform="translate(113.81097,0.0)">
 <g fill="#000">
 <text style="stroke:none" transform="scale(1,-1) translate(0.0,0)" text-anchor="middle"  font-size="12"> 
<g fill="#000">
 <g stroke="none"> </g> </g>
 </text> 
</g>
 </g>
 <path d=" M 119.3498 28.45274 C 119.3498 31.51178 116.87001 33.99156 113.81097 33.99156 C 110.75194 33.99156 108.27216 31.51178 108.27216 28.45274 C 108.27216 25.3937 110.75194 22.91393 113.81097 22.91393 C 116.87001 22.91393 119.3498 25.3937 119.3498 28.45274 Z M 113.81097 28.45274  " fill="none"/>
 <g transform="translate(113.81097,28.45274)">
 <g fill="#000">
 <text style="stroke:none" transform="scale(1,-1) translate(0.0,0)" text-anchor="middle"  font-size="12"> 
<g fill="#000">
 <g stroke="none"> </g> </g>
 </text> 
</g>
 </g>
 <path d=" M 147.80254 0.0 C 147.80254 3.05904 145.32275 5.53882 142.26372 5.53882 C 139.20468 5.53882 136.7249 3.05904 136.7249 0.0 C 136.7249 -3.05904 139.20468 -5.53882 142.26372 -5.53882 C 145.32275 -5.53882 147.80254 -3.05904 147.80254 0.0 Z M 142.26372 0.0  " fill="none"/>
 <g transform="translate(142.26372,0.0)">
 <g fill="#000">
 <text style="stroke:none" transform="scale(1,-1) translate(0.0,0)" text-anchor="middle"  font-size="12"> 
<g fill="#000">
 <g stroke="none"> </g> </g>
 </text> 
</g>
 </g>
 <path d=" M 147.80254 28.45274 C 147.80254 31.51178 145.32275 33.99156 142.26372 33.99156 C 139.20468 33.99156 136.7249 31.51178 136.7249 28.45274 C 136.7249 25.3937 139.20468 22.91393 142.26372 22.91393 C 145.32275 22.91393 147.80254 25.3937 147.80254 28.45274 Z M 142.26372 28.45274  " fill="none"/>
 <g transform="translate(142.26372,28.45274)">
 <g fill="#000">
 <text style="stroke:none" transform="scale(1,-1) translate(0.0,0)" text-anchor="middle"  font-size="12"> 
<g fill="#000">
 <g stroke="none"> </g> </g>
 </text> 
</g>
 </g>
 <path d=" M 133.57616 14.22636 C 133.57616 17.2854 131.09637 19.76518 128.03734 19.76518 C 124.9783 19.76518 122.49852 17.2854 122.49852 14.22636 C 122.49852 11.16733 124.9783 8.68755 128.03734 8.68755 C 131.09637 8.68755 133.57616 11.16733 133.57616 14.22636 Z M 128.03734 14.22636  " fill="none"/>
 <g transform="translate(128.03734,14.22636)">
 <g fill="#000">
 <text style="stroke:none" transform="scale(1,-1) translate(0.0,0)" text-anchor="middle"  font-size="12"> 
<g fill="#000">
 <g stroke="none"> </g> </g>
 </text> 
</g>
 </g>
 <path d=" M 0.0 5.73882 L 0.0 22.71393 M 4.05795 24.39479 L 24.39479 4.05795 M 28.45274 5.73882 L 28.45274 22.71393 M 24.39479 24.39479 L 4.05795 4.05795  " fill="none"/>
 <path d=" M 5.73882 0.0 L 22.71393 0.0  " fill="none"/>
 <path d=" M 5.73882 28.45274 L 22.71393 28.45274  " fill="none"/>
 <path d=" M 4.05795 4.05795 L 10.16841 10.16841 M 10.16841 18.28432 L 4.05795 24.39479  " fill="none"/>
 <path d=" M 24.39479 4.05795 L 18.28432 10.16841 M 18.28432 18.28432 L 24.39479 24.39479  " fill="none"/>
 <path d=" M 113.81097 5.73882 L 113.81097 22.71393 M 117.86893 24.39479 L 138.20576 4.05795 M 142.26372 5.73882 L 142.26372 22.71393 M 138.20576 24.39479 L 117.86893 4.05795  " fill="none"/>
 <path d=" M 119.54979 0.0 L 136.5249 0.0  " fill="none"/>
 <path d=" M 119.54979 28.45274 L 136.5249 28.45274  " fill="none"/>
 <path d=" M 117.86893 4.05795 L 123.97939 10.16841 M 123.97939 18.28432 L 117.86893 24.39479  " fill="none"/>
 <path d=" M 138.20576 4.05795 L 132.09529 10.16841 M 132.09529 18.28432 L 138.20576 24.39479  " fill="none"/>
 <g stroke-width="1.2">
 <path d=" M 19.96518 14.22636 L 122.29852 14.22636  " fill="none"/>
 </g>
 <path d=" M -14.22636 -28.45274 L 156.03009 -28.45274  " fill="none"/>
 <g transform="translate(156.03009,-28.45274)">
 <g stroke-width="0.31999">
 <g stroke-dasharray="none" stroke-dashoffset="0.0">
 <g stroke-linecap="round">
 <g stroke-linejoin="round">
 <path d=" M -1.19998 1.59998 C -1.09998 0.99998 0.0 0.09999 0.29999 0.0 C 0.0 -0.09999 -1.09998 -0.99998 -1.19998 -1.59998  " fill="none"/>
 </g>
 </g>
 </g>
 </g>
  </g>
 <g transform="translate(160.60628,-29.3583)">
 <g fill="#000">
 <text style="stroke:none" transform="scale(1,-1) translate(8.05809,0)" text-anchor="middle"  font-size="12"> 
<g fill="#000">
 <g stroke="none"> <tspan font-family="\cmmi" font-size="\12">v</tspan><tspan baseline-shift="sub"><tspan font-family="\cmr" font-size="\8">2</tspan><tspan font-family="\cmmi" font-size="\8">,i</tspan></tspan></g> </g>
 </text> 
</g>
 </g>
 <g fill="#66f">
 <g fill="#66f">
 <path d=" M 8.14488 -28.45274 C 8.14488 -26.31143 6.40904 -24.57559 4.26773 -24.57559 C 2.12642 -24.57559 0.39058 -26.31143 0.39058 -28.45274 C 0.39058 -30.59406 2.12642 -32.3299 4.26773 -32.3299 C 6.40904 -32.3299 8.14488 -30.59406 8.14488 -28.45274 Z M 4.26773 -28.45274  " stroke="none"/>
 </g>
 <g transform="matrix(0.7,0.0,0.0,0.7,4.26773,-28.45274)">
 <g fill="#000">
 <text style="stroke:none" transform="scale(1,-1) translate(0.0,0)" text-anchor="middle"  font-size="12"> 
<g fill="#000">
 <g stroke="none"> </g> </g>
 </text> 
</g>
 </g>
 </g>
 <g fill="#66f">
 <g fill="#66f">
 <path d=" M 10.99033 -28.45274 C 10.99033 -26.31143 9.25449 -24.57559 7.11317 -24.57559 C 4.97186 -24.57559 3.23602 -26.31143 3.23602 -28.45274 C 3.23602 -30.59406 4.97186 -32.3299 7.11317 -32.3299 C 9.25449 -32.3299 10.99033 -30.59406 10.99033 -28.45274 Z M 7.11317 -28.45274  " stroke="none"/>
 </g>
 <g transform="matrix(0.7,0.0,0.0,0.7,7.11317,-28.45274)">
 <g fill="#000">
 <text style="stroke:none" transform="scale(1,-1) translate(0.0,0)" text-anchor="middle"  font-size="12"> 
<g fill="#000">
 <g stroke="none"> </g> </g>
 </text> 
</g>
 </g>
 </g>
 <g fill="#66f">
 <g fill="#66f">
 <path d=" M 13.83578 -28.45274 C 13.83578 -26.31143 12.09995 -24.57559 9.95863 -24.57559 C 7.81732 -24.57559 6.08148 -26.31143 6.08148 -28.45274 C 6.08148 -30.59406 7.81732 -32.3299 9.95863 -32.3299 C 12.09995 -32.3299 13.83578 -30.59406 13.83578 -28.45274 Z M 9.95863 -28.45274  " stroke="none"/>
 </g>
 <g transform="matrix(0.7,0.0,0.0,0.7,9.95863,-28.45274)">
 <g fill="#000">
 <text style="stroke:none" transform="scale(1,-1) translate(0.0,0)" text-anchor="middle"  font-size="12"> 
<g fill="#000">
 <g stroke="none"> </g> </g>
 </text> 
</g>
 </g>
 </g>
 <g fill="#66f">
 <g fill="#66f">
 <path d=" M 16.68079 -28.45274 C 16.68079 -26.31143 14.94495 -24.57559 12.80363 -24.57559 C 10.66232 -24.57559 8.92648 -26.31143 8.92648 -28.45274 C 8.92648 -30.59406 10.66232 -32.3299 12.80363 -32.3299 C 14.94495 -32.3299 16.68079 -30.59406 16.68079 -28.45274 Z M 12.80363 -28.45274  " stroke="none"/>
 </g>
 <g transform="matrix(0.7,0.0,0.0,0.7,12.80363,-28.45274)">
 <g fill="#000">
 <text style="stroke:none" transform="scale(1,-1) translate(0.0,0)" text-anchor="middle"  font-size="12"> 
<g fill="#000">
 <g stroke="none"> </g> </g>
 </text> 
</g>
 </g>
 </g>
 <g fill="#66f">
 <g fill="#66f">
 <path d=" M 19.52625 -28.45274 C 19.52625 -26.31143 17.7904 -24.57559 15.6491 -24.57559 C 13.50778 -24.57559 11.77194 -26.31143 11.77194 -28.45274 C 11.77194 -30.59406 13.50778 -32.3299 15.6491 -32.3299 C 17.7904 -32.3299 19.52625 -30.59406 19.52625 -28.45274 Z M 15.6491 -28.45274  " stroke="none"/>
 </g>
 <g transform="matrix(0.7,0.0,0.0,0.7,15.6491,-28.45274)">
 <g fill="#000">
 <text style="stroke:none" transform="scale(1,-1) translate(0.0,0)" text-anchor="middle"  font-size="12"> 
<g fill="#000">
 <g stroke="none"> </g> </g>
 </text> 
</g>
 </g>
 </g>
 <g fill="#f66">
 <g fill="#f66">
 <path d=" M 130.49176 -28.45274 C 130.49176 -26.31143 128.75592 -24.57559 126.61461 -24.57559 C 124.4733 -24.57559 122.73746 -26.31143 122.73746 -28.45274 C 122.73746 -30.59406 124.4733 -32.3299 126.61461 -32.3299 C 128.75592 -32.3299 130.49176 -30.59406 130.49176 -28.45274 Z M 126.61461 -28.45274  " stroke="none"/>
 </g>
 <g transform="matrix(0.7,0.0,0.0,0.7,126.61461,-28.45274)">
 <g fill="#000">
 <text style="stroke:none" transform="scale(1,-1) translate(0.0,0)" text-anchor="middle"  font-size="12"> 
<g fill="#000">
 <g stroke="none"> </g> </g>
 </text> 
</g>
 </g>
 </g>
 <g fill="#f66">
 <g fill="#f66">
 <path d=" M 133.33722 -28.45274 C 133.33722 -26.31143 131.60138 -24.57559 129.46007 -24.57559 C 127.31876 -24.57559 125.58292 -26.31143 125.58292 -28.45274 C 125.58292 -30.59406 127.31876 -32.3299 129.46007 -32.3299 C 131.60138 -32.3299 133.33722 -30.59406 133.33722 -28.45274 Z M 129.46007 -28.45274  " stroke="none"/>
 </g>
 <g transform="matrix(0.7,0.0,0.0,0.7,129.46007,-28.45274)">
 <g fill="#000">
 <text style="stroke:none" transform="scale(1,-1) translate(0.0,0)" text-anchor="middle"  font-size="12"> 
<g fill="#000">
 <g stroke="none"> </g> </g>
 </text> 
</g>
 </g>
 </g>
 <g fill="#f66">
 <g fill="#f66">
 <path d=" M 136.18222 -28.45274 C 136.18222 -26.31143 134.44638 -24.57559 132.30507 -24.57559 C 130.16376 -24.57559 128.42792 -26.31143 128.42792 -28.45274 C 128.42792 -30.59406 130.16376 -32.3299 132.30507 -32.3299 C 134.44638 -32.3299 136.18222 -30.59406 136.18222 -28.45274 Z M 132.30507 -28.45274  " stroke="none"/>
 </g>
 <g transform="matrix(0.7,0.0,0.0,0.7,132.30507,-28.45274)">
 <g fill="#000">
 <text style="stroke:none" transform="scale(1,-1) translate(0.0,0)" text-anchor="middle"  font-size="12"> 
<g fill="#000">
 <g stroke="none"> </g> </g>
 </text> 
</g>
 </g>
 </g>
 <g fill="#f66">
 <g fill="#f66">
 <path d=" M 139.02768 -28.45274 C 139.02768 -26.31143 137.29184 -24.57559 135.15053 -24.57559 C 133.00922 -24.57559 131.27338 -26.31143 131.27338 -28.45274 C 131.27338 -30.59406 133.00922 -32.3299 135.15053 -32.3299 C 137.29184 -32.3299 139.02768 -30.59406 139.02768 -28.45274 Z M 135.15053 -28.45274  " stroke="none"/>
 </g>
 <g transform="matrix(0.7,0.0,0.0,0.7,135.15053,-28.45274)">
 <g fill="#000">
 <text style="stroke:none" transform="scale(1,-1) translate(0.0,0)" text-anchor="middle"  font-size="12"> 
<g fill="#000">
 <g stroke="none"> </g> </g>
 </text> 
</g>
 </g>
 </g>
 <g fill="#f66">
 <g fill="#f66">
 <path d=" M 141.87312 -28.45274 C 141.87312 -26.31143 140.13728 -24.57559 137.99597 -24.57559 C 135.85466 -24.57559 134.11882 -26.31143 134.11882 -28.45274 C 134.11882 -30.59406 135.85466 -32.3299 137.99597 -32.3299 C 140.13728 -32.3299 141.87312 -30.59406 141.87312 -28.45274 Z M 137.99597 -28.45274  " stroke="none"/>
 </g>
 <g transform="matrix(0.7,0.0,0.0,0.7,137.99597,-28.45274)">
 <g fill="#000">
 <text style="stroke:none" transform="scale(1,-1) translate(0.0,0)" text-anchor="middle"  font-size="12"> 
<g fill="#000">
 <g stroke="none"> </g> </g>
 </text> 
</g>
 </g>
 </g>
 <g transform="translate(10.34409,-45.41661)">
 <g fill="#000">
 <text style="stroke:none" transform="scale(1,-1) translate(60.78777,0)" text-anchor="middle"  font-size="12"> 
<g fill="#000">
 <g stroke="none"> <tspan font-family="\cmr" font-size="\10">Fiedler vector embedding</tspan></g> </g>
 </text> 
</g>
 </g>
 </g>
 </g>
 
                                                     </g> 
</svg> 
